@startuml
class Member{
    e-mail String
}
class BoardMember{}
class Event{
    date : Date
    description : String
    assign(l : Location) : void
}
class Conference{
    max_attendees : Integer
}
class BoardMeeting{}
class Location{
    description : String
    address : String
}
class Person{
    name : String
}
Event <|-- Conference
Event <|-- BoardMeeting

Person <|-- Member
Member <|-- BoardMember

class AAUOC{
    newLocation(l : Location) : void
    newEvent(e : Event) : void
    newPerson(p : Person) : void
    informEvent(e : Event) : void
    register(m : Member, e : Event) : void
}
AAUOC o-- Person
AAUOC o-- Event
AAUOC o-- Location
Person -- Conference : attendsTo
Location -- Event : isLocated In
Event -- Member : attendsTo
BoardMeeting -- BoardMember : attendsTo
@enduml